PathFileType	4	(X/Y/Z)	0_coords_data.trc
DataRate	CameraRate	NumFrames	NumMarkers	Units	OrigDataRate	OrigDataStartFrame	OrigNumFrames
30.0	30.0	6	21	m	30.0	29	57
Frame#	Time	THUMB_TIP	THUMB_IP	THUMB_MCP	THUMB_CMC	INDEX_TIP	INDEX_DIP	INDEX_PIP	INDEX_MCP	MIDDLE_TIP	MIDDLE_DIP	MIDDLE_PIP	MIDDLE_MCP	RING_TIP	RING_DIP	RING_PIP	RING_MCP	PINKY_TIP	PINKY_DIP	PINKY_PIP	PINKY_MCP	WRIST
X1	Y1	Z1	X2	Y2	Z2	X3	Y3	Z3	X4	Y4	Z4	X5	Y5	Z5	X6	Y6	Z6	X7	Y7	Z7	X8	Y8	Z8	X9	Y9	Z9	X10	Y10	Z10	X11	Y11	Z11	X12	Y12	Z12	X13	Y13	Z13	X14	Y14	Z14	X15	Y15	Z15	X16	Y16	Z16	X17	Y17	Z17	X18	Y18	Z18	X19	Y19	Z19	X20	Y20	Z20	X21	Y21	Z21
27	0.9333333333333294	0.4842672101200496	-0.024620448922730742	-0.1707909597572826	0.48716057764199705	-0.02498168392888256	-0.14799846244669224	0.47192691624924765	-0.03006100229329456	-0.12133470266822144	0.47546254324645887	-0.028107501753726227	-0.07690978649071478	0.4999144455327984	-0.018397916096005162	-0.10086151825294998	0.5171157398055696	-0.018152205239521102	-0.10652324073966163	0.5297882576005276	-0.00198395366420967	-0.12101478195286319	0.4924045177693247	0.01834907136537456	-0.11938377509228815	0.5026230929827535	-0.016812180294548784	-0.08676909196778793	0.5203283155816756	-0.01456292934994563	-0.08984577246969566	0.538209896163997	0.00497768629207096	-0.10200401930914288	0.5015625797829438	0.03040488298796551	-0.09943890893037016	0.5028976748442723	-0.006022681202722424	-0.07330057635913428	0.5209138124599357	-0.006301516804921636	-0.07388455933869792	0.5399875641742451	0.008457861760678975	-0.0800920321657167	0.5102807971726292	0.035767009246028714	-0.07755445616978435	0.5085148555449531	-0.007661143446356156	-0.058682690434716966	0.5255060937365439	-0.005929920067174521	-0.05982316854849351	0.5389249929823416	0.010217024769772487	-0.05967710533026788	0.5110100284950085	0.03245210119646447	-0.05445794975008994	0.4622830810018609	-0.023011742144276925	-0.05198982011943093
28	0.9666666666666625	0.4857739563495186	-0.025272321600612768	-0.17054914476977145	0.48772813789786906	-0.025510608175621896	-0.14765538155827085	0.47184296284035454	-0.030397102033295154	-0.12133802243599123	0.4753818535432669	-0.028252957098487297	-0.07692215933403873	0.5024760780408286	-0.020208494247489606	-0.10182108572292553	0.5191731979800378	-0.0184906120009114	-0.10862219345053514	0.5297032776817006	-0.0010151902063690876	-0.12331017791333554	0.4917815889928616	0.01805147599087542	-0.11983975126670454	0.5049688555890687	-0.017927120505503713	-0.08805245242299975	0.5223915146685989	-0.015006342423306118	-0.09204244064265871	0.538512844057494	0.0058645349492240095	-0.1044488408633335	0.5012406581894081	0.03010275500713222	-0.10003967200296182	0.505383809885636	-0.0074152443048869365	-0.07447358441100205	0.5233237232810877	-0.006690092517952273	-0.07609644061214793	0.5410786452634406	0.009535231915985154	-0.08255256726936588	0.5102583409019061	0.03538268827857094	-0.07846127497393984	0.5110003659569732	-0.008566415315197196	-0.06087865235361606	0.527888029020577	-0.0061071636749227	-0.062204894269708044	0.540243715911547	0.01086027440675319	-0.06169985427445862	0.5115931850712682	0.03187700460847687	-0.0555089266219827	0.4622830810018609	-0.023011742144276925	-0.051989820119430985
29	0.9999999999999956	0.48720391631250204	-0.025962651570998307	-0.17026455538089963	0.48825101182610886	-0.026069187034542307	-0.14731042195834598	0.4717445892085984	-0.03074327095091045	-0.12133907328495436	0.47529482124764444	-0.02841348870542937	-0.07693346590077849	0.5060610804732756	-0.022315223096182835	-0.10331436126238741	0.5218541736810206	-0.018618555049143115	-0.11137121252584464	0.5295855343664831	0.0003065090959900596	-0.12600261170889893	0.49111635496377837	0.01767857996250677	-0.12034845537119132	0.5082006369843978	-0.019338162307328433	-0.09007238485376606	0.5251430715058243	-0.015218906236257546	-0.0949698987034781	0.5389041862499093	0.007269442365383072	-0.10739227561658238	0.5008643613448757	0.029738519750738823	-0.10073944136002078	0.5088960910356269	-0.009240576220735597	-0.0762969155084453	0.5265767066746698	-0.006935147326174507	-0.0789578980782038	0.5424238947560152	0.011124652504538313	-0.08550696205628944	0.5102497966146148	0.03487784031354224	-0.07956269492755647	0.5143838126008615	-0.009605988809070265	-0.06369874747653165	0.5310621975693965	-0.006005887407959598	-0.06506649918757673	0.5419263382792898	0.011930645960775976	-0.06403536566185292	0.5122760750813611	0.03115538194999601	-0.05681353283089252	0.4622830810018609	-0.023011742144276925	-0.051989820119430985
30	1.0333333333333288	0.4883547025620141	-0.02683537337130726	-0.16994964753306252	0.4885821697533318	-0.02676737548225616	-0.14697262346631357	0.4715257301000776	-0.031225724061782367	-0.12132070357133634	0.4751921449338472	-0.02862816880743102	-0.07693939997435639	0.510719307326739	-0.024515815414374198	-0.10571695294918165	0.5250028077650746	-0.018397288868009953	-0.1150199228045291	0.5292867130094445	0.001922649057933934	-0.12918883636708034	0.4903690743301554	0.017140532575120604	-0.12097485347900128	0.5123578731730359	-0.02084509849080174	-0.09303239110156164	0.5285548834061081	-0.015099438634217588	-0.09874590598490535	0.5392474890923504	0.009159667217353618	-0.11085266099691443	0.5004294675900505	0.029251348571678548	-0.10159882568374567	0.5135227280475729	-0.011091577909236983	-0.07899919620042939	0.5306632340418393	-0.006787880563466353	-0.08256026955217655	0.543881661455905	0.013317020481154351	-0.08898258297376349	0.5102427702672839	0.03423525434858199	-0.08088484715023114	0.5186907945617908	-0.010538985687895464	-0.06720062226169848	0.535001780568724	-0.005484686805387606	-0.06838628591042306	0.5438425089765359	0.013479444898920945	-0.06664983869816887	0.5130249262262747	0.030291019400080055	-0.05837149301664629	0.4622830810018609	-0.023011742144276925	-0.051989820119430985
31	1.0666666666666622	0.48943145994501847	-0.02774179054972359	-0.16962660199175372	0.4888766370698421	-0.027503849480148612	-0.1466562829773258	0.4713176174849333	-0.031719415462805656	-0.12130416601122906	0.47508442181898347	-0.028826023708864112	-0.07694957809445091	0.5165566618400461	-0.026417990258466584	-0.10909207867848136	0.5284897606804485	-0.0175305403840732	-0.1194175029697796	0.5287587310312498	0.003881168928327128	-0.13258853908208523	0.4896094498870859	0.01655319132035049	-0.12161631376580262	0.5174332114782645	-0.02224658045051875	-0.09678223170569739	0.5324940235389559	-0.014464852863538824	-0.10315535149388305	0.5394039829274582	0.011475362322301619	-0.11450291719589789	0.4999652884557789	0.028708898864238108	-0.10251365042818938	0.5192314068755212	-0.01265911635367023	-0.08244811570832083	0.5354275703015869	-0.005992664587483709	-0.08671926439752325	0.5452051326284779	0.01611802411446872	-0.09269393585870978	0.5102139075338642	0.03351451932026839	-0.08231622151822654	0.5238283011392716	-0.011049179248983187	-0.07118339004029467	0.5395033959916499	-0.004212255535096743	-0.07192357616515921	0.5458167960568105	0.015645046664250484	-0.06934665009306717	0.5137687317709664	0.02934038881501988	-0.060059959083683834	0.4622830810018609	-0.023011742144276925	-0.051989820119430985
32	1.0999999999999952	0.49025629420819994	-0.02875192710026775	-0.16930276630385166	0.4890267789798335	-0.028325945215816106	-0.14636138814696376	0.4710451274026013	-0.03230241457739835	-0.12126820385378517	0.4749799043075772	-0.029030313350742243	-0.07695453909594113	0.5234175561992246	-0.027544693711954338	-0.11373273172593801	0.5320693652855977	-0.015880519208884336	-0.12455369437696351	0.5280077955220632	0.006090365927714614	-0.13607730884336772	0.4889139702016623	0.015840112373241455	-0.1222841453169709	0.5235036872976884	-0.02320928358253249	-0.10142152075081229	0.5369078598739006	-0.0130971230457676	-0.10820918359054005	0.5393783807201358	0.014163808950564238	-0.11821656403897346	0.4995547453191407	0.02805366048949054	-0.1034755325731907	0.5260072349472475	-0.01354424135969734	-0.08669141043849315	0.5407395477999332	-0.0042676736455341535	-0.0913716080256835	0.5462816683355657	0.01946856853393142	-0.09647608509647976	0.5102210135287978	0.0326719601943829	-0.08382616582528074	0.5298081951465892	-0.010983070182950083	-0.07546017606009364	0.5444000845102581	-0.0020347302179736237	-0.07552323690095297	0.5476836231989064	0.018396026297632817	-0.07197153577611826	0.5145181525144567	0.028286977725794138	-0.06181751759981624	0.4622830810018609	-0.023011742144276925	-0.05198982011943104
